<svg width="24" height="23" viewBox="0 0 24 23" fill="none" xmlns="http://www.w3.org/2000/svg">
<path d="M11.1289 1.52344L8.33594 7.19531L2.0625 8.09766C1.6901 8.15495 1.38932 8.32682 1.16016 8.61328C0.959635 8.89974 0.859375 9.21484 0.859375 9.55859C0.888021 9.90234 1.03125 10.2031 1.28906 10.4609L5.84375 14.8867L4.76953 21.1602C4.71224 21.5039 4.76953 21.819 4.94141 22.1055C5.14193 22.4206 5.41406 22.6211 5.75781 22.707C6.10156 22.793 6.43099 22.75 6.74609 22.5781L12.375 19.6562L18.0039 22.5781C18.319 22.75 18.6484 22.793 18.9922 22.707C19.3359 22.6211 19.5938 22.4206 19.7656 22.1055C19.9661 21.819 20.0378 21.5039 19.9805 21.1602L18.9062 14.8867L23.4609 10.4609C23.7188 10.2031 23.8477 9.90234 23.8477 9.55859C23.8763 9.21484 23.776 8.89974 23.5469 8.61328C23.3464 8.32682 23.0599 8.15495 22.6875 8.09766L16.4141 7.19531L13.6211 1.52344C13.4492 1.17969 13.1914 0.950521 12.8477 0.835938C12.5326 0.721354 12.2031 0.721354 11.8594 0.835938C11.5443 0.950521 11.3008 1.17969 11.1289 1.52344Z" fill="#979797"/>
</svg>

